<?xml version="1.0" encoding="UTF-8" standalone="no" ?>
<!DOCTYPE svg PUBLIC "-//W3C//DTD SVG 1.1//EN" "http://www.w3.org/Graphics/SVG/1.1/DTD/svg11.dtd">
<svg xmlns="http://www.w3.org/2000/svg" xmlns:xlink="http://www.w3.org/1999/xlink" version="1.1" width="1080" height="1080" viewBox="0 0 1080 1080" xml:space="preserve">
<desc>Created with Fabric.js 5.2.4</desc>
<defs>
</defs>
<rect x="0" y="0" width="100%" height="100%" fill="transparent"></rect>
<g transform="matrix(1 0 0 1 540 540)" id="686a4e79-62db-4c90-b043-bfcbd035001b"  >
<rect style="stroke: none; stroke-width: 1; stroke-dasharray: none; stroke-linecap: butt; stroke-dashoffset: 0; stroke-linejoin: miter; stroke-miterlimit: 4; fill: rgb(255,235,46); fill-rule: nonzero; opacity: 1;" vector-effect="non-scaling-stroke"  x="-540" y="-540" rx="0" ry="0" width="1080" height="1080" />
</g>
<g transform="matrix(1 0 0 1 540 540)" id="c0e01fbe-7188-44c6-8063-3c817d2b1862"  >
</g>
<g transform="matrix(1.58 0 0 1.58 539.12 540.88)"  >
<g style="" vector-effect="non-scaling-stroke"   >
		<g transform="matrix(0.13 0 0 -0.13 0 0)"  >
<path style="stroke: none; stroke-width: 1; stroke-dasharray: none; stroke-linecap: butt; stroke-dashoffset: 0; stroke-linejoin: miter; stroke-miterlimit: 4; fill: rgb(0,0,0); fill-rule: nonzero; opacity: 1;" vector-effect="non-scaling-stroke"  transform=" translate(-2560, -2560)" d="M 0 2560 L 0 0 L 2560 0 L 5120 0 L 5120 2560 L 5120 5120 L 2560 5120 L 0 5120 L 0 2560 z M 3630 3645 L 4705 2570 L 3627 1492 L 2550 415 L 1473 1492 L 395 2570 L 1470 3645 C 2061 4236 2547 4720 2550 4720 C 2553 4720 3039 4236 3630 3645 z" stroke-linecap="round" />
</g>
		<g transform="matrix(0.13 0 0 -0.13 -1.67 -1)"  >
<path style="stroke: none; stroke-width: 1; stroke-dasharray: none; stroke-linecap: butt; stroke-dashoffset: 0; stroke-linejoin: miter; stroke-miterlimit: 4; fill: rgb(0,0,0); fill-rule: nonzero; opacity: 1;" vector-effect="non-scaling-stroke"  transform=" translate(-2547.5, -2567.5)" d="M 2190 2925 L 1835 2570 L 2193 2213 L 2550 1855 L 2905 2210 C 3100 2405 3260 2569 3260 2575 C 3259 2588 2568 3280 2555 3280 C 2549 3280 2385 3120 2190 2925 z" stroke-linecap="round" />
</g>
</g>
</g>
</svg>